PathFileType	4	(X/Y/Z)	/Users/itak/Documents/Research/Walk-IL/dataset/trc/00069_00006.trc
DataRate	CameraRate	NumFrames	NumMarkers	Units	OrigDataRate	OrigDataStartFrame	OrigNumFrames
100.000000	100.000000	4	53	mm	100.000000	669	765
Frame#	Time	RPSI			LPSI			L3			STRN			T10			C7			CLAV			RBAK			LBAK			LSHO			LUPA			LAEL			LAOL			LWTS			LWPS			LFRA			LIFD			LHPS			LHTS			RSHO			RUPA			RAEL			RAOL			RWTS			RWPS			RFRA			RIFD			RHTS			RHPS			RBHD			LFHD			RFHD			LBHD			LHIP			RHIP			RASI			LASI			LKNE			LTHI			LANK			LTIP			LTOE			LMT1			LMT5			LHEE			RKNE			RTHI			RANK			RTIP			RTOE			RMT1			RMT5			RHEE			
		X1	Y1	Z1	X2	Y2	Z2	X3	Y3	Z3	X4	Y4	Z4	X5	Y5	Z5	X6	Y6	Z6	X7	Y7	Z7	X8	Y8	Z8	X9	Y9	Z9	X10	Y10	Z10	X11	Y11	Z11	X12	Y12	Z12	X13	Y13	Z13	X14	Y14	Z14	X15	Y15	Z15	X16	Y16	Z16	X17	Y17	Z17	X18	Y18	Z18	X19	Y19	Z19	X20	Y20	Z20	X21	Y21	Z21	X22	Y22	Z22	X23	Y23	Z23	X24	Y24	Z24	X25	Y25	Z25	X26	Y26	Z26	X27	Y27	Z27	X28	Y28	Z28	X29	Y29	Z29	X30	Y30	Z30	X31	Y31	Z31	X32	Y32	Z32	X33	Y33	Z33	X34	Y34	Z34	X35	Y35	Z35	X36	Y36	Z36	X37	Y37	Z37	X38	Y38	Z38	X39	Y39	Z39	X40	Y40	Z40	X41	Y41	Z41	X42	Y42	Z42	X43	Y43	Z43	X44	Y44	Z44	X45	Y45	Z45	X46	Y46	Z46	X47	Y47	Z47	X48	Y48	Z48	X49	Y49	Z49	X50	Y50	Z50	X51	Y51	Z51	X52	Y52	Z52	X53	Y53	Z53	

670	6.69	385.6768493652344	1027.696044921875	956.3003540039062	416.9383239746094	1018.850769042969	1127.314697265625	404.7477111816406	1085.884521484375	1050.213500976562	162.0988616943359	1291.138793945312	1071.483764648438	426.9243774414062	1216.422241210938	1060.327026367188	377.6468811035156	1485.766357421875	1064.06298828125	195.1864318847656	1404.95068359375	1068.570556640625	432.1575317382812	1344.151977539062	989.0301513671875	403.1959533691406	1448.522583007812	1164.285034179688	303.4995422363281	1459.589111328125	1239.608642578125	312.9487915039062	1335.544067382812	1321.511108398438	265.4153442382812	1127.129028320312	1356.637451171875	326.7971496582031	1098.461669921875	1273.304565429688	138.7666015625	901.1809692382812	1302.822875976562	193.5036010742188	884.8047485351562	1363.85693359375	228.3718872070312	1022.580627441406	1369.483154296875	96.58447265625	722.9307250976562	1288.952270507812	147.1015014648438	809.4762573242188	1362.271118164062	103.4648132324219	824.28173828125	1310.810180664062	307.9096374511719	1449.8623046875	891.9345703125	319.7735290527344	1383.021118164062	829.9520263671875	362.630615234375	1124.895263671875	790.5274047851562	337.1409606933594	1098.051147460938	883.1826171875	205.9044189453125	878.330810546875	812.4698486328125	280.2454223632812	860.6493530273438	769.4736328125	348.9480895996094	1042.991577148438	778.4273071289062	212.3130340576172	691.3116455078125	848.5248413085938	184.7298431396484	772.79052734375	815.4305419921875	246.5529937744141	769.8745727539062	768.6121826171875	314.30908203125	1680.345825195312	1127.430053710938	177.1399383544922	1686.912475585938	961.0466918945312	143.8379974365234	1707.649658203125	1080.926635742188	341.443115234375	1650.950439453125	995.9512939453125	325.4324951171875	961.0902099609375	1233.440551757812	302.3779907226562	961.5625	888.295654296875	184.7248840332031	987.2116088867188	925.8019409179688	208.4990081787109	975.878662109375	1192.6650390625	220.8425750732422	501.7413330078125	1171.781982421875	261.8428039550781	639.8938598632812	1212.155029296875	361.3505554199219	50.55282974243164	1168.475219726562	295.2174072265625	260.8131713867188	1182.015625	153.3018951416016	40.14638519287109	1167.533203125	201.3749084472656	42.75642395019531	1113.083251953125	260.2799072265625	38.42024230957031	1209.895385742188	410.8709411621094	52.36130523681641	1090.6416015625	169.0493621826172	524.6491088867188	940.21728515625	197.3027038574219	793.7658081054688	898.6787109375	278.6356201171875	46.26162338256836	927.0452880859375	189.9305267333984	399.3801574707031	930.7401733398438	78.00282287597656	40.47861099243164	1011.204345703125	145.4569091796875	45.29304885864258	1035.876953125	154.0682525634766	48.57367324829102	938.5646362304688	336.5285949707031	50.11263656616211	972.7482299804688	
671	6.7	383.4324035644531	1027.654296875	956.607177734375	414.5761413574219	1018.842895507812	1127.711059570312	402.251953125	1085.561401367188	1050.471801757812	160.0429992675781	1291.037719726562	1071.632934570312	424.8475952148438	1216.225708007812	1060.4951171875	375.6746215820312	1485.56884765625	1064.646362304688	193.1969909667969	1404.81591796875	1068.88916015625	430.1414184570312	1344.040161132812	989.3583984375	401.1184692382812	1448.172119140625	1164.900146484375	301.262451171875	1459.087646484375	1240.124145507812	310.1805725097656	1334.769287109375	1321.728393554688	261.4106750488281	1126.3525390625	1356.087158203125	323.6553649902344	1097.805786132812	1273.322509765625	135.7579956054688	900.2785034179688	1300.382690429688	189.4227447509766	884.0890502929688	1362.280029296875	224.2439270019531	1021.819152832031	1368.337036132812	94.44066619873047	721.7265625	1286.225219726562	143.0558013916016	808.6843872070312	1360.004516601562	100.1094818115234	823.5551147460938	1307.794799804688	305.9502868652344	1449.97314453125	892.3326416015625	317.7597351074219	1383.147583007812	830.2408447265625	360.5059204101562	1124.786499023438	791.3839721679688	334.9270629882812	1098.112670898438	884.0840454101562	204.6609649658203	877.7069091796875	813.2379150390625	279.015380859375	860.4088134765625	770.3034057617188	346.9845275878906	1042.955688476562	779.4153442382812	211.5856628417969	690.7759399414062	849.1397705078125	183.9883270263672	772.2058715820312	815.978271484375	245.7108306884766	769.4935302734375	769.3658447265625	312.1190185546875	1680.13623046875	1128.233764648438	175.0788879394531	1686.8203125	961.7501220703125	141.6391754150391	1707.4140625	1081.58447265625	339.3644409179688	1650.898315429688	996.738525390625	323.0093078613281	961.1820678710938	1233.83056640625	300.1508178710938	961.3523559570312	888.6419067382812	182.5247497558594	986.8321533203125	926.0769653320312	205.9631195068359	975.8909912109375	1193.024291992188	220.4712371826172	501.5035400390625	1172.228759765625	261.0010986328125	639.8598022460938	1212.477661132812	361.3616027832031	50.60654067993164	1168.470947265625	295.0920715332031	260.8697814941406	1182.09326171875	153.3189086914062	40.14725875854492	1167.54052734375	201.4021148681641	42.75341796875	1113.105224609375	260.2804870605469	38.45423889160156	1209.920532226562	410.8681640625	52.47312545776367	1090.559448242188	169.6005249023438	523.9873657226562	939.8091430664062	196.2092895507812	793.3171997070312	898.7110595703125	278.9495849609375	45.97512435913086	927.275634765625	190.6091003417969	398.819580078125	930.6615600585938	77.74718475341797	39.86978149414062	1011.119384765625	145.3534851074219	44.89796829223633	1035.904541015625	154.1232757568359	48.24274063110352	938.6324462890625	336.7906494140625	49.59902572631836	973.2150268554688	
672	6.71	381.2919006347656	1027.650268554688	956.8796997070312	412.2716674804688	1018.862670898438	1128.092041015625	399.7897338867188	1085.24365234375	1050.682861328125	158.0364227294922	1290.95703125	1071.731323242188	422.8313293457031	1216.05859375	1060.570556640625	373.7409973144531	1485.389526367188	1065.124633789062	191.2467041015625	1404.695190429688	1069.139038085938	428.1656188964844	1343.950805664062	989.5671997070312	399.0941772460938	1447.857055664062	1165.40380859375	299.0925598144531	1458.6142578125	1240.547485351562	307.5138549804688	1334.029418945312	1321.847900390625	257.5632934570312	1125.604614257812	1355.41162109375	320.6946105957031	1097.199829101562	1273.248046875	133.0418090820312	899.364990234375	1297.768676757812	185.5093994140625	883.40869140625	1360.580444335938	220.2886657714844	1021.090576171875	1367.05810546875	92.59847259521484	720.4359130859375	1283.247680664062	139.2266845703125	807.9140014648438	1357.599609375	96.89530944824219	822.8345336914062	1304.467163085938	303.9958801269531	1450.095581054688	892.6393432617188	315.7110595703125	1383.25927734375	830.4442138671875	358.2617797851562	1124.6572265625	792.1866455078125	332.6248168945312	1098.1650390625	884.9508056640625	203.3272552490234	877.0704345703125	814.0026245117188	277.7075500488281	860.1556396484375	771.1067504882812	344.9100952148438	1042.909545898438	780.3673095703125	210.8832244873047	690.1976928710938	849.7254638671875	183.1156158447266	771.6026000976562	816.50390625	244.8158721923828	769.09814453125	770.0888061523438	310.0268249511719	1679.928833007812	1128.957641601562	173.0688323974609	1686.756958007812	962.4115600585938	139.5283966064453	1707.193969726562	1082.208374023438	337.3422546386719	1650.855712890625	997.4338989257812	320.6141357421875	961.2867431640625	1234.171630859375	298.0414428710938	961.175537109375	888.9447021484375	180.4276580810547	986.4891967773438	926.2652587890625	203.4774169921875	975.9114379882812	1193.318603515625	220.1156005859375	501.2834167480469	1172.5810546875	260.1717224121094	639.8480224609375	1212.734985351562	361.3796691894531	50.6580924987793	1168.45654296875	294.9843444824219	260.94775390625	1182.127075195312	153.3354797363281	40.15342712402344	1167.546142578125	201.4221801757812	42.75267028808594	1113.122314453125	260.2767639160156	38.49557876586914	1209.934448242188	410.8614196777344	52.57153701782227	1090.467895507812	170.3565826416016	523.345703125	939.20166015625	195.2805938720703	792.91259765625	898.6028442382812	279.2041931152344	45.62525177001953	927.3710327148438	191.41796875	398.2991333007812	930.4793090820312	77.59898376464844	39.58372497558594	1011.058471679688	145.3365478515625	44.68200302124023	1035.90869140625	154.1762542724609	47.96793365478516	938.646484375	337.04150390625	49.02960586547852	973.4713134765625	
673	6.72	379.2660217285156	1027.685302734375	957.123046875	410.0268859863281	1018.904846191406	1128.4658203125	397.3748474121094	1084.939697265625	1050.8603515625	156.0798034667969	1290.89208984375	1071.7783203125	420.8742980957031	1215.928466796875	1060.567749023438	371.8421325683594	1485.2353515625	1065.50244140625	189.3329620361328	1404.589599609375	1069.319091796875	426.2312622070312	1343.889770507812	989.6666259765625	397.1148376464844	1447.584350585938	1165.805541992188	296.9776611328125	1458.174438476562	1240.882080078125	304.9323425292969	1333.334716796875	1321.877685546875	253.8843536376953	1124.891235351562	1354.618041992188	317.916748046875	1096.648315429688	1273.083862304688	130.5974426269531	898.4549560546875	1294.996337890625	181.7749481201172	882.7661743164062	1358.759765625	216.5109100341797	1020.392944335938	1365.656127929688	91.01602172851562	719.1344604492188	1280.058715820312	135.6287078857422	807.1699829101562	1355.067749023438	93.93880462646484	822.0692749023438	1300.8984375	302.0525207519531	1450.227661132812	892.8595581054688	313.6363220214844	1383.35498046875	830.56884765625	355.9076538085938	1124.509765625	792.93212890625	330.2420349121094	1098.208129882812	885.7808837890625	201.8931884765625	876.4264526367188	814.764404296875	276.3150634765625	859.8931884765625	771.8809204101562	342.7386779785156	1042.852905273438	781.2809448242188	210.1989898681641	689.5858154296875	850.290283203125	182.0733032226562	770.973388671875	817.0296630859375	243.85302734375	768.69189453125	770.7809448242188	308.0237731933594	1679.725341796875	1129.601196289062	171.1071929931641	1686.72607421875	963.0242919921875	137.5005035400391	1706.989624023438	1082.796630859375	335.3768615722656	1650.828857421875	998.03955078125	318.2364501953125	961.3917236328125	1234.4609375	296.0677490234375	961.0452880859375	889.20556640625	178.4429473876953	986.1981201171875	926.35693359375	201.0416412353516	975.9320678710938	1193.533081054688	219.7434844970703	501.0823974609375	1172.821044921875	259.3106994628906	639.8433227539062	1212.912231445312	361.4050598144531	50.70865249633789	1168.427734375	294.8827514648438	261.0382080078125	1182.111328125	153.3511505126953	40.16516494750977	1167.549560546875	201.4362945556641	42.75263977050781	1113.1337890625	260.2659912109375	38.54596710205078	1209.932861328125	410.85498046875	52.65599060058594	1090.3671875	171.2560272216797	522.750244140625	938.4359741210938	194.5118560791016	792.566650390625	898.3760986328125	279.3967895507812	45.24562072753906	927.3622436523438	192.3110046386719	397.8427429199219	930.21923828125	77.51898193359375	39.49533462524414	1011.023132324219	145.3683776855469	44.58444595336914	1035.896728515625	154.2149047851562	47.73213195800781	938.6193237304688	337.2749633789062	48.45617294311523	973.5326538085938	
